# xmcd CD database file
#
# Track frame offsets:
#	187
#	17960
#	34510
#	54037
#	71497
#	93490
#	115745
#	132805
#
# Disc length: 1999 seconds
#
# Revision: 2
# Processed by: cddbd v1.5.2PL0 Copyright (c) Steve Scherf et al.
# Submitted via: CDex 1.50Beta6
#
DISCID=5d07cd08
DTITLE=Various Artist - Dreamy Four
DYEAR=1988
DGENRE=Japanese Disco
TTITLE0=îâå¯ÙÍåÇí­ (Yoko Oginome) - İÁù¦ªÎ«­«ã«í«ë
TTITLE1=á³ô»ĞÑìíí­ (Kyoko Koizumi) - «­«¹ªòò­ªáªÊª¤ªÇ
TTITLE2=íşß£åÇí­ (Yoko Nagayama) - «Ï-«ÈªËûıªòªÄª±ªÆ
TTITLE3=ñĞïÌÛöí­ (Noriko Sakai) - «Î¡¤«ì¡¤«Ê¡¤ª¤ Teen-age
TTITLE4=íşß£åÇí­ (Yoko Nagayama) - «æ«¢¡¤«Ş«¤¡¤«é«ô (You're My Love, You're My Life)
TTITLE5=ñĞïÌÛöí­ (Noriko Sakai) - äîª·ª­«â«Ê«à-«ë
TTITLE6=îâå¯ÙÍåÇí­ (Yoko Oginome) - «À«ó«·«ó«°«Ò-«í- (Eat You Up) (Special English Version)
TTITLE7=á³ô»ĞÑìíí­ (Kyoko Koizumi) - å¨Ù¥ª±ªÎ Mew
EXTD=YEAR: 1988
EXTT0=
EXTT1=
EXTT2=
EXTT3=
EXTT4=
EXTT5=
EXTT6=
EXTT7=
PLAYORDER=
